<svg width="308" height="632" viewBox="0 0 308 632" fill="none" xmlns="http://www.w3.org/2000/svg">
<path d="M1 54.5C1 24.9528 24.9528 1 54.5 1H253.5C283.047 1 307 24.9528 307 54.5V577.5C307 607.047 283.047 631 253.5 631H54.5C24.9528 631 1 607.047 1 577.5V54.5Z" stroke="#737373"/>
<path d="M12 55.5C12 30.9233 31.9233 11 56.5 11H80.5C86.8513 11 92 16.1487 92 22.5C92 30.5081 98.4919 37 106.5 37H201.5C209.508 37 216 30.5081 216 22.5C216 16.1487 221.149 11 227.5 11H251.5C276.077 11 296 30.9233 296 55.5V576.5C296 601.077 276.077 621 251.5 621H56.5C31.9233 621 12 601.077 12 576.5V55.5Z" fill="white" stroke="#737373"/>
<circle cx="153.5" cy="112" r="48" fill="#EEEEEE"/>
<rect x="73.5" y="185" width="160" height="16" rx="8" fill="#EEEEEE"/>
<rect x="117.5" y="214" width="72" height="8" rx="4" fill="#EEEEEE"/>
<rect x="35" y="278" width="237" height="44" rx="8" fill="#1A1A1A"/>
<g clip-path="url(#clip0_86_23277)">
<path d="M60.9817 294.288C59.6779 293.985 58.3219 293.985 57.018 294.288C56.2649 293.826 55.69 293.614 55.2719 293.524C55.0934 293.484 54.9108 293.465 54.7279 293.468C54.6446 293.47 54.5618 293.48 54.4804 293.498L54.4697 293.5L54.4655 293.502H54.4623L54.6084 294.015L54.4623 293.503C54.3873 293.524 54.3179 293.561 54.259 293.612C54.2 293.663 54.1529 293.726 54.1209 293.797C53.8062 294.502 53.7463 295.294 53.9513 296.038C53.4203 296.682 53.1309 297.491 53.1332 298.325C53.1332 299.982 53.6217 301.096 54.4548 301.811C55.0383 302.313 55.7465 302.579 56.4569 302.732C56.3452 303.06 56.303 303.408 56.3332 303.754V304.392C55.8991 304.482 55.5983 304.453 55.3839 304.383C55.1161 304.294 54.9103 304.116 54.7129 303.86C54.6098 303.722 54.5137 303.579 54.4249 303.432L54.3641 303.332C54.2874 303.205 54.2077 303.079 54.1252 302.955C53.9225 302.655 53.6217 302.28 53.1353 302.152L52.6191 302.016L52.3481 303.049L52.8644 303.184C52.9497 303.205 53.0607 303.285 53.2431 303.553C53.3133 303.659 53.3809 303.766 53.4457 303.875L53.5183 303.993C53.6185 304.155 53.7337 304.334 53.8671 304.509C54.1369 304.861 54.5049 305.216 55.0511 305.396C55.4244 305.52 55.8489 305.55 56.3332 305.475V307.467C56.3332 307.608 56.3894 307.744 56.4894 307.844C56.5894 307.944 56.7251 308 56.8665 308H61.1332C61.2747 308 61.4103 307.944 61.5103 307.844C61.6104 307.744 61.6665 307.608 61.6665 307.467V303.666C61.6665 303.33 61.6516 303.022 61.5567 302.735C62.2639 302.586 62.9668 302.319 63.5471 301.818C64.3791 301.097 64.8665 299.972 64.8665 298.306V298.305C64.8639 297.478 64.5744 296.677 64.0473 296.038C64.2521 295.295 64.1922 294.503 63.8777 293.798C63.846 293.727 63.7991 293.664 63.7404 293.613C63.6816 293.562 63.6123 293.524 63.5375 293.503L63.3913 294.015C63.5375 293.503 63.5364 293.503 63.5353 293.503L63.5332 293.502L63.5289 293.5L63.5193 293.498C63.493 293.491 63.4663 293.485 63.4393 293.482C63.3835 293.473 63.3272 293.469 63.2708 293.468C63.0879 293.465 62.9053 293.484 62.7268 293.524C62.3097 293.614 61.7348 293.826 60.9817 294.288Z" fill="white"/>
</g>
<path d="M79.92 304.12C79.04 304.12 78.276 303.94 77.628 303.58C76.98 303.22 76.48 302.716 76.128 302.068C75.776 301.412 75.6 300.64 75.6 299.752C75.6 298.864 75.772 298.084 76.116 297.412C76.468 296.732 76.952 296.2 77.568 295.816C78.192 295.432 78.908 295.24 79.716 295.24C80.348 295.24 80.92 295.36 81.432 295.6C81.952 295.84 82.376 296.172 82.704 296.596C83.04 297.02 83.244 297.512 83.316 298.072H82.332C82.252 297.48 81.976 297.008 81.504 296.656C81.04 296.304 80.456 296.128 79.752 296.128C79.12 296.128 78.568 296.28 78.096 296.584C77.624 296.88 77.256 297.296 76.992 297.832C76.736 298.368 76.608 299 76.608 299.728C76.608 300.456 76.74 301.084 77.004 301.612C77.276 302.132 77.664 302.532 78.168 302.812C78.68 303.092 79.292 303.232 80.004 303.232C80.492 303.232 80.928 303.164 81.312 303.028C81.696 302.884 82.044 302.664 82.356 302.368L83.34 302.728C82.9 303.192 82.392 303.54 81.816 303.772C81.248 304.004 80.616 304.12 79.92 304.12ZM82.356 302.728V299.932L82.728 300.304H79.992V299.44H83.34V302.728H82.356ZM85.1592 304V297.88H86.1192V304H85.1592ZM85.0872 296.488V295.36H86.1912V296.488H85.0872ZM90.4666 304.108C89.7866 304.108 89.2906 303.956 88.9786 303.652C88.6746 303.34 88.5226 302.892 88.5226 302.308V296.452L89.4826 296.092V302.296C89.4826 302.64 89.5706 302.892 89.7466 303.052C89.9226 303.212 90.2106 303.292 90.6106 303.292C90.7706 303.292 90.9066 303.284 91.0186 303.268C91.1386 303.244 91.2346 303.216 91.3066 303.184V304C91.2266 304.032 91.1106 304.056 90.9586 304.072C90.8146 304.096 90.6506 304.108 90.4666 304.108ZM87.2626 298.696V297.88H91.3066V298.696H87.2626ZM92.614 304V295.36H93.598V304H92.614ZM98.398 304V295.36H99.382V304H98.398ZM93.118 299.068H98.83V299.932H93.118V299.068ZM103.37 304.12C102.97 304.12 102.614 304.04 102.302 303.88C101.99 303.712 101.746 303.48 101.57 303.184C101.394 302.88 101.306 302.532 101.306 302.14V297.88H102.266V301.888C102.266 302.352 102.378 302.7 102.602 302.932C102.834 303.164 103.162 303.28 103.586 303.28C103.97 303.28 104.31 303.192 104.606 303.016C104.902 302.84 105.134 302.596 105.302 302.284C105.478 301.964 105.566 301.6 105.566 301.192L105.722 302.644C105.522 303.1 105.21 303.46 104.786 303.724C104.362 303.988 103.89 304.12 103.37 304.12ZM105.626 304V302.56H105.566V297.88H106.526V304H105.626ZM111.468 304.108C110.892 304.108 110.408 303.968 110.016 303.688C109.624 303.408 109.356 303.012 109.212 302.5L109.344 302.476V304H108.444V295.36H109.404V299.308L109.272 299.272C109.424 298.8 109.7 298.432 110.1 298.168C110.508 297.896 110.992 297.76 111.552 297.76C112.096 297.76 112.568 297.892 112.968 298.156C113.376 298.42 113.692 298.788 113.916 299.26C114.14 299.732 114.252 300.284 114.252 300.916C114.252 301.556 114.136 302.116 113.904 302.596C113.672 303.076 113.348 303.448 112.932 303.712C112.516 303.976 112.028 304.108 111.468 304.108ZM111.324 303.268C111.932 303.268 112.408 303.06 112.752 302.644C113.096 302.22 113.268 301.644 113.268 300.916C113.268 300.196 113.096 299.632 112.752 299.224C112.408 298.808 111.932 298.6 111.324 298.6C110.716 298.6 110.236 298.812 109.884 299.236C109.532 299.652 109.356 300.224 109.356 300.952C109.356 301.664 109.532 302.228 109.884 302.644C110.236 303.06 110.716 303.268 111.324 303.268Z" fill="white"/>
<path d="M242.667 299.333V300.667H250.667L247 304.333L247.947 305.28L253.227 300L247.947 294.72L247 295.667L250.667 299.333H242.667Z" fill="white"/>
<rect x="35" y="342" width="237" height="44" rx="8" fill="#EEEEEE"/>
<rect x="35" y="406" width="237" height="44" rx="8" fill="#EEEEEE"/>
<rect x="35" y="470" width="237" height="44" rx="8" fill="#EEEEEE"/>
<rect x="35" y="534" width="237" height="44" rx="8" fill="#EEEEEE"/>
<defs>
<clipPath id="clip0_86_23277">
<rect width="16" height="16" fill="white" transform="translate(51 292)"/>
</clipPath>
</defs>
</svg>
